<svg width="1200" height="760" viewBox="0 0 1200 760" fill="none" xmlns="http://www.w3.org/2000/svg"><rect width="1200" height="760" fill="#111"/><rect width="1200" height="760" fill="url(#g)"/><circle cx="910" cy="150" r="210" fill="#7ED957" opacity=".22"/><circle cx="285" cy="600" r="260" fill="#FF7F00" opacity=".18"/><path d="M600 150c74 86 111 166 111 241 0 124-95 219-111 219s-111-95-111-219c0-75 37-155 111-241Z" fill="#7ED957"/><path d="M600 220c43 62 65 119 65 172 0 76-54 136-65 136s-65-60-65-136c0-53 22-110 65-172Z" fill="#0B120D" opacity=".42"/><text x="72" y="106" fill="#FF7F00" font-family="Arial, Helvetica, sans-serif" font-size="38" font-weight="900" letter-spacing="10">PRODUCTS</text><text x="72" y="668" fill="#fff" font-family="Arial, Helvetica, sans-serif" font-size="84" font-weight="900">Featured Flower</text><defs><linearGradient id="g" x1="0" y1="0" x2="1200" y2="760"><stop stop-color="#1B351F"/><stop offset=".5" stop-color="#050505"/><stop offset="1" stop-color="#2B1600"/></linearGradient></defs></svg>